<?xml version="1.0" encoding="utf-8"?>
<!-- Generator: Adobe Illustrator 17.0.0, SVG Export Plug-In . SVG Version: 6.00 Build 0)  -->
<!DOCTYPE svg PUBLIC "-//W3C//DTD SVG 1.1//EN" "http://www.w3.org/Graphics/SVG/1.1/DTD/svg11.dtd">
<svg version="1.1" id="Logo" xmlns="http://www.w3.org/2000/svg" xmlns:xlink="http://www.w3.org/1999/xlink" x="0px" y="0px"
	 width="3156.739px" height="937.085px" viewBox="0 0 3156.739 937.085" enable-background="new 0 0 3156.739 937.085"
	 xml:space="preserve">
<g>
	<path fill="#19A9E5" d="M1737.414,164.205c-3.518-5.022-10.438-6.246-15.467-2.723l-116.888,81.844
		c-3.304,2.24-7.291,3.549-11.584,3.548l-0.016-0.003c-4.293,0.001-8.28-1.308-11.584-3.548l-116.888-81.844
		c-5.028-3.523-11.948-2.3-15.467,2.723c-1.325,1.892-1.979,4.052-2.013,6.197l0.001,175.466l-0.027,0.008l0.001,0.002
		c0.002,6.133,4.968,11.104,11.11,11.102l0.017,0.003v-0.003h269.714c6.132-0.001,11.102-4.969,11.101-11.108l0.001-175.466
		C1739.394,168.257,1738.739,166.097,1737.414,164.205z"/>
	<path fill="#72D0EB" d="M1458.594,356.977l0.017,0.003v-0.003h269.714c6.132-0.001,11.102-4.969,11.101-11.108l0.001-175.466
		c-0.033-2.146-0.688-4.306-2.013-6.197c-3.518-5.022-10.438-6.246-15.467-2.723l-272.442,190.767
		C1451.514,355.107,1454.83,356.978,1458.594,356.977z"/>
	<g>
		<path fill="#2E343D" d="M1327.249,450.672c-13.113,0-23.202,2.815-23.202,14.939v11.861c0,12.109,10.089,15.251,23.202,15.251
			c13.139,0,23.228-3.142,23.228-15.251V465.61C1350.477,453.487,1340.388,450.672,1327.249,450.672z"/>
		<path fill="#2E343D" d="M1336.686,516.446h-18.509c-6.127,0-11.106,4.966-11.106,11.106v158.975
			c0,6.127,4.979,11.119,11.106,11.119h18.509c6.126,0,11.106-4.992,11.106-11.119V527.552
			C1347.792,521.412,1342.812,516.446,1336.686,516.446z"/>
		<path fill="#2E343D" d="M796.303,514.595c-26.918,0-45.773,11.771-59.896,30.619c-9.411-18.848-27.588-30.619-53.163-30.619
			c-27.249,0-42.722,14.809-54.167,30.619l-0.007-17.675c0-6.126-4.966-11.093-11.112-11.093h-18.49
			c-6.133,0-11.105,4.967-11.105,11.093v158.987c0,6.139,4.973,11.119,11.105,11.119h18.49c6.146,0,11.112-4.981,11.112-11.119
			l0.007-90.828c0-27.256,15.472-44.097,38.023-44.097c22.538,0,35.996,15.485,35.996,43.081v91.844
			c0,6.139,4.979,11.119,11.112,11.119h18.497c6.133,0,11.105-4.981,11.105-11.119v-90.828c0-28.611,15.812-44.097,38.023-44.097
			c22.876,0,35.996,15.159,35.996,43.406l0.013,91.519c0,6.139,4.966,11.119,11.093,11.119h18.503
			c6.133,0,11.106-4.981,11.106-11.119V582.56C858.544,539.153,834.997,514.595,796.303,514.595z"/>
		<path fill="#2E343D" d="M2513.873,450.672c-13.113,0-23.229,2.815-23.229,14.939v11.861c0,12.109,10.115,15.251,23.229,15.251
			c13.14,0,23.229-3.142,23.229-15.251V465.61C2537.102,453.487,2527.013,450.672,2513.873,450.672z"/>
		<path fill="#2E343D" d="M2523.311,516.446h-18.51c-6.127,0-11.105,4.966-11.105,11.106v158.975
			c0,6.127,4.979,11.119,11.105,11.119h18.51c6.126,0,11.079-4.992,11.079-11.119V527.552
			C2534.39,521.412,2529.437,516.446,2523.311,516.446z"/>
		<path fill="#2E343D" d="M281.083,497.897c17.714,0,34.458,5.645,48.444,16.281c1.87,1.434,4.112,2.19,6.472,2.19
			c2.848,0,5.527-1.108,7.554-3.129l14.241-14.234c2.138-2.15,3.278-5.122,3.115-8.159c-0.169-3.024-1.623-5.853-4.001-7.756
			c-21.658-17.337-47.884-26.5-75.824-26.5c-67.046,0-121.604,54.538-121.604,121.602c0,67.053,54.558,121.604,121.604,121.604
			c27.94,0,54.16-9.177,75.817-26.5c2.372-1.891,3.832-4.732,3.989-7.742c0.169-3.051-0.971-6.023-3.109-8.16l-14.24-14.234
			c-2.034-2.008-4.712-3.115-7.567-3.115c-2.353,0-4.582,0.729-6.458,2.164c-13.993,10.636-30.73,16.268-48.431,16.268
			c-44.261,0-80.283-36.003-80.283-80.283C200.8,533.913,236.822,497.897,281.083,497.897z"/>
		<path fill="#2E343D" d="M1540.273,516.446h-18.496c-6.14,0-11.119,4.966-11.119,11.106v17.818
			c-13.113-18.51-31.623-30.619-60.561-30.619c-41.725,0-82.433,32.979-82.433,92.183v0.678c0,58.879,40.369,92.197,82.433,92.197
			c29.596,0,48.106-13.592,60.561-30.082l0.332-0.419v16.449c0,30.619-23.646,58.658-56.624,58.658
			c-20.256,0-38.832-9.386-48.125-25.171c-3.18-5.214-9.984-6.896-15.225-3.715l-7.821,5.188
			c-5.253,3.181-6.935,10.024-3.767,15.277c15.29,24.987,42.402,41.62,76.724,41.62c58.892,0,95.221-42.051,95.221-92.522V527.552
			C1551.372,521.412,1546.4,516.446,1540.273,516.446z M1506.969,607.611c0,33.982-23.345,56.885-49.925,56.885
			c-26.925,0-48.059-21.885-48.059-56.885v-0.678c0-34.308,21.479-56.845,48.059-56.845c26.58,0,49.925,22.877,49.925,56.845
			V607.611z"/>
		<path fill="#2E343D" d="M2401.877,514.751c-27.608,0-44.085,14-55.529,30.463v-17.675c0-6.126-4.979-11.093-11.105-11.093h-18.51
			c-6.101,0-11.08,4.967-11.08,11.093v158.987c0,6.139,4.979,11.119,11.08,11.119h18.51c6.126,0,11.105-4.981,11.105-12.788
			l-0.001-95.729c0-21.562,17.479-39.04,39.04-39.04s39.04,17.478,39.04,39.04v97.398c0,6.139,4.979,11.119,11.08,11.119h18.51
			c6.126,0,11.105-4.981,11.105-11.119V582.716C2465.122,541.669,2441.894,514.751,2401.877,514.751z"/>
		<path fill="#2E343D" d="M1676.169,514.751c-27.608,0-44.085,14-55.529,30.463v-17.675c0-6.126-4.979-11.093-11.105-11.093h-18.51
			c-6.101,0-11.08,4.967-11.08,11.093v158.987c0,6.139,4.979,11.119,11.08,11.119h18.51c6.126,0,11.105-4.981,11.105-12.788
			l-0.001-95.729c0-21.562,17.479-39.04,39.04-39.04s39.04,17.478,39.04,39.04v97.398c0,6.139,4.979,11.119,11.08,11.119h18.51
			c6.126,0,11.105-4.981,11.105-11.119V582.716C1739.414,541.669,1716.186,514.751,1676.169,514.751z"/>
		<path fill="#2E343D" d="M2992.676,516.844c-0.501-0.232-0.916-0.381-1.157-0.467c-0.445-0.123-0.918-0.235-1.423-0.335
			c-3.788-0.852-7.706-1.291-11.751-1.291c-21.218,0-39.556,12.38-48.161,30.311v-17.51c0-6.14-4.979-11.106-11.105-11.106h-18.51
			c-6.101,0-11.106,4.966-11.106,11.106V686.54c0,6.125,5.006,11.106,11.106,11.106h18.51c6.126,0,11.105-4.981,11.105-11.106
			v-67.301c0-54.342,28.364-64.119,44.735-62.789c3.207,0.261,6.022,0.691,8.421,1.017c0,0,0.892,0.102,1.37,0.135
			c0.229,0.019,0.459,0.029,0.692,0.029c3.804,0,6.978-2.705,7.696-6.301l4.093-26.144c0.06-0.388,0.091-0.786,0.091-1.19
			C2997.282,520.82,2995.39,518.078,2992.676,516.844z"/>
		<path fill="#2E343D" d="M2190.731,514.751c-54.513,0-94.53,41.387-94.53,92.184v0.437v0.437c0,50.797,40.018,92.184,94.53,92.184
			s94.53-41.387,94.53-92.184v-0.437v-0.437C2285.262,556.138,2245.244,514.751,2190.731,514.751z M2243.944,607.371v0.566
			c0,31.07-21.627,56.201-53.213,56.542c-31.586-0.341-53.213-25.472-53.213-56.542v-0.566v-0.566
			c0-31.07,21.627-56.201,53.213-56.542c31.586,0.341,53.213,25.472,53.213,56.542V607.371z"/>
		<path fill="#2E343D" d="M2773.815,514.751c-54.513,0-94.53,41.387-94.53,92.184v0.437v0.437c0,50.797,40.018,92.184,94.53,92.184
			s94.53-41.387,94.53-92.184v-0.437v-0.437C2868.346,556.138,2828.328,514.751,2773.815,514.751z M2827.028,607.371v0.566
			c0,31.07-21.627,56.201-53.213,56.542c-31.586-0.341-53.213-25.472-53.213-56.542v-0.566v-0.566
			c0-31.07,21.627-56.201,53.213-56.542c31.586,0.341,53.213,25.472,53.213,56.542V607.371z"/>
		<path fill="#2E343D" d="M2064.017,459.079h-18.564c-3.649,0-6.83,1.773-8.89,4.471l-76.503,104.509l-76.503-104.509
			c-2.06-2.697-5.24-4.471-8.89-4.471h-18.564c-6.126,0-11.106,4.979-11.106,11.119v216.328c0,6.139,4.979,11.119,11.106,11.119
			h18.51c6.127,0,11.106-4.981,11.106-11.119V536.468l67.573,86.695c0.052,0.065,0.104,0.131,0.156,0.183l0.547,0.69h0.026
			c1.484,1.667,3.618,2.734,6.038,2.737c2.42-0.003,4.554-1.07,6.038-2.737h0.026l0.547-0.69c0.053-0.052,0.104-0.117,0.156-0.183
			l67.573-86.695v150.059c0,6.139,4.979,11.119,11.106,11.119h18.51c6.126,0,11.105-4.981,11.105-11.119V470.198
			C2075.122,464.059,2070.143,459.079,2064.017,459.079z"/>
		<polygon fill="#2E343D" points="1960.069,626.774 1960.059,626.773 1960.05,626.774 		"/>
		<path fill="#2E343D" d="M988.392,514.751c-28.931,0-47.441,11.953-60.561,30.463v-17.662c0-6.14-4.973-11.106-11.112-11.106
			h-18.497c-6.133,0-11.105,4.966-11.105,11.106v233.34c0,6.139,4.973,11.131,11.105,11.131h18.497
			c6.14,0,11.112-4.992,11.112-11.131v-91.584c12.455,16.49,30.964,30.502,60.561,30.502c42.064,0,82.433-33.318,82.433-92.197
			v-0.678C1070.825,547.729,1030.117,514.751,988.392,514.751z M1029.504,607.612c0,33.982-23.345,56.885-49.925,56.885
			c-26.925,0-48.059-21.885-48.059-56.885v-0.678c0-34.308,21.479-56.845,48.059-56.845c26.58,0,49.925,22.877,49.925,56.845
			V607.612z"/>
		<path fill="#2E343D" d="M561.514,668.877l-0.002,0.001L561.514,668.877c-4.341,0.002-7.851-3.513-7.851-7.846V527.552
			c0-6.14-4.973-11.106-11.105-11.106H524.06c-6.133,0-11.105,4.966-11.105,11.106v17.662
			c-13.126-18.51-31.636-30.463-60.573-30.463c-41.719,0-82.434,32.979-82.434,92.184v0.678c0,58.879,40.376,92.195,82.434,92.195
			c30.482,0,51.99-13.671,61.239-30.499c4.653,16.357,19.705,28.338,37.555,28.338v-0.001l10.336,0.001
			c4.333,0,7.848-3.511,7.848-7.849l0.001-13.072C569.361,672.391,565.852,668.877,561.514,668.877z M509.318,607.612
			c0,33.982-23.345,56.885-49.925,56.885c-26.925,0-48.059-21.885-48.059-56.885v-0.678c0-34.308,21.479-56.845,48.059-56.845
			c26.58,0,49.925,22.877,49.925,56.845V607.612z"/>
		<path fill="#2E343D" d="M1279.766,668.877l-0.002,0.001L1279.766,668.877c-4.341,0.002-7.851-3.513-7.851-7.846V527.552
			c0-6.14-4.973-11.106-11.105-11.106h-18.497c-6.133,0-11.105,4.966-11.105,11.106v17.662
			c-13.126-18.51-31.636-30.463-60.573-30.463c-41.719,0-82.434,32.979-82.434,92.184v0.678c0,58.879,40.376,92.195,82.434,92.195
			c30.482,0,51.99-13.671,61.239-30.499c4.653,16.357,19.705,28.338,37.555,28.338v-0.001l10.336,0.001
			c4.333,0,7.848-3.511,7.848-7.849l0.001-13.072C1287.613,672.391,1284.104,668.877,1279.766,668.877z M1227.571,607.612
			c0,33.982-23.345,56.885-49.925,56.885c-26.925,0-48.059-21.885-48.059-56.885v-0.678c0-34.308,21.479-56.845,48.059-56.845
			c26.58,0,49.925,22.877,49.925,56.845V607.612z"/>
		<path fill="#2E343D" d="M2659.135,516.446h-38.662v-49.591h0.001c-0.01-1.537-0.471-3.087-1.421-4.442
			c-2.487-3.552-7.377-4.414-10.931-1.926l-0.001,0.002l-19.337,13.567c-5.454,3.721-9.034,9.986-9.032,17.086v25.304h-13.113
			c-6.127,0-11.132,4.981-11.132,11.094v11.443c0,6.139,5.005,11.106,11.132,11.106h13.113v97.75
			c0,39.026,21.169,52.152,51.148,52.152c15.877,0,32.196-6.139,32.196-6.139s5.527-1.656,4.119-8.096
			c-0.469-2.215-3.232-17.428-3.232-17.428c-0.678-3.74-2.216-6.674-7.508-5.878c-2.607,0.417-7.534,1.198-14.156,1.198
			c-13.791-0.039-21.847-6.387-21.847-22.211v-91.35h38.662c6.152,0,11.105-4.967,11.105-11.106V527.54
			C2670.24,521.427,2665.287,516.446,2659.135,516.446z"/>
	</g>
</g>
</svg>
